<svg version="1.1" id="Layer_1" xmlns="http://www.w3.org/2000/svg" xmlns:xlink="http://www.w3.org/1999/xlink" x="0px" y="0px" viewBox="0 0 1200 1200" enable-background="new 0 0 1200 1200" xml:space="preserve">
<g>
	<path opacity="0.39" fill="#242021" d="M1099.572,811.207l-926.251-0.912c-4.94,0-85.848,7.541-85.848,10.034l-3.493,1.033
		c0,2.494,4.005,4.515,8.945,4.515h1048.13c4.94,0,8.945-2.021,8.945-4.515v0C1150,818.868,1104.512,811.207,1099.572,811.207z"></path>
	<path d="M356.186,760.462c0,0-13.767,2.409-22.026-5.162c-16.864,9.637-21.338,12.39-21.338,12.39l-68.833,37.17l-43.02-3.442
		l-39.579-38.202l-17.208-6.883l-15.487,2.065c0,0-5.507,13.422-11.357,13.767c-4.818-32.007-8.604-51.625-8.604-55.066
		c0-3.442,27.877-88.106,27.877-88.106l43.709-25.124c0,0,117.36,0.344,117.016,1.721c-0.344,1.377,38.202,38.546,38.202,40.267
		s22.026,63.326,21.338,64.359C356.186,711.247,356.186,760.462,356.186,760.462z"></path>
	<path d="M1102.917,727.265l-16.833-9.975l-174.873,23.067l-10.287,15.586c0,0-14.651-12.157-15.898-12.78
		c-1.247-0.623-3.429-2.494-4.987,0c-1.559,2.494-5.299,1.247-5.611,0.312c-0.312-0.935-4.987-9.352-4.987-9.352l7.481-79.176
		l48.94-45.199c0,0,29.301-12.78,44.576-16.209s61.72-5.611,61.72-5.611s24.314,0.312,32.73,7.793
		c8.416,7.481,47.069,86.969,47.069,86.969S1110.71,724.46,1102.917,727.265z"></path>
	<path fill="#364D5B" d="M465.974,404.845c0,0-91.437,69.825-118.868,108.478c13.716,8.312,19.95,11.222,21.612,11.222
		c1.663,0,68.162,8.313,68.162,8.313s316.705-16.209,319.614-16.209s5.819-98.087,5.819-98.087l-2.909-24.106l-227.346,4.572
		L465.974,404.845z"></path>
	<path fill="#F7DD04" d="M876.797,376.415c-14.544-0.518-180.568-6.067-296.942,2.246c-54.862,1.247-93.515,8.312-108.893,22.028
		c-4.988,4.156-4.988,4.156-4.988,4.156l33.25,3.325c0,0-70.24,76.475-83.125,88.943c0,0-10.806,9.975-18.703,13.716
		c-7.897,3.741-17.872,7.066-34.497,2.078c-10.806-2.078-13.716-4.156-13.716-4.156s-12.469,4.572-19.534,6.234
		c-7.066,1.663-17.041,1.663-18.287,1.663s-4.156,1.247-3.741,3.325c0.416,2.078,20.366,9.559,41.147,11.222
		c20.781,1.663,71.487-1.662,71.487-1.662l9.975-5.819l98.503-116.375c0,0,163.755-2.078,217.371-2.909
		c-2.078,51.122-2.3,116.31-2.3,116.31l315.814-17.131l3.553-3.201c1.893,0.626,3.588-1.372,2.639-3.126
		C1053.623,474.747,995.73,380.649,876.797,376.415z"></path>
	<path fill="#364D5B" d="M979.862,485.35c6.41,11.13-2.359,14.974-3.775,15.529c-1.416,0.555-199.126,9.983-208.091,9.983
		s-8.494-13.31-8.494-13.31s-0.757-86.489-0.472-89.845c0.472-5.546,9.437-4.991,9.437-4.991s89.018-1.54,98.927-2.095
		C867.395,400.619,926.955,393.483,979.862,485.35z"></path>
	<path fill="#F7DD04" d="M1110.047,654.349c0.733-45.459-0.919-72.657-3.37-97.684c-2.368-24.176-32.445-56.25-37.211-56.616
		s-231.696,9.165-281.188,11.731c-49.492,2.566-217.765,8.799-233.896,10.265s-129.366,3.723-185.457,6.289
		c-43.039-2.962-56.612-10.356-56.612-10.356s-45.718,5.167-83.479,9.566c-25.424,2.377-84.586,15.823-94.67,23.89
		c-31.704,25.363-63.337,64.095-64.437,75.46c-1.1,11.365-4.033,16.864-13.198,20.53s-6.232,5.866-5.499,30.795
		s9.165,52.058,9.165,52.058l6.966,11.731l31.528-14.298c0,0,3.666-12.831,3.299-19.064c-0.367-6.232,6.966-24.196,6.966-24.196
		l72.222-76.988l19.797-8.065l69.655,3.299l54.991,44.726l40.693,85.786l78.087,1.833l420.866-13.198l12.831-31.162
		c0,0,8.799-26.029,10.265-29.329c1.466-3.299,16.131-27.862,16.131-27.862l43.993-37.761c0,0,96.418,1.1,109.616,6.966
		s55.724,74.421,55.724,74.421l-0.463,48.702l1.488-2.964l3.314-56.336c0,0-35.187,8.836-21.734-30.046L1110.047,654.349z"></path>
	<path fill="#242021" d="M1118.309,668.661c-5.495-20.253-23.909-67.139-79.271-85.026c-71.489-23.096-115.848,6.599-144.077,32.995
		c-28.229,26.396-44.359,77.354-46.193,93.118c-20.53,0-475.857,13.565-475.857,13.565s-7.699-58.291-41.427-97.518
		c-33.728-39.227-74.421-45.093-115.115-43.26c-40.693,1.833-78.821,20.897-101.917,62.323c0,0-11.731,24.563-16.497,50.958
		c-1.466,9.898-3.299,15.764-6.232,16.497c-2.933,0.733-4.399,1.1-4.399,1.1s-6.599,16.131-14.664,16.497
		c-8.065,0.367-12.831-1.833-12.831-1.833s0.367,6.232-4.033,9.532c-4.399,3.299-3.299,5.499-1.1,7.332
		c2.2,1.833,8.432,10.998,22.73,10.998c14.298,0,32.628,4.766,35.928,11.365c3.299,6.599,0,6.232,3.299,6.599
		c3.299,0.367,4.033-12.465,4.033-18.33c0-5.866-2.2-65.989,12.831-89.086c15.031-23.096,37.761-54.625,92.385-54.991
		c54.625-0.367,88.353,24.929,101.917,67.089c13.564,42.16,15.764,79.92,15.764,79.92s14.664,2.933,26.762,2.566
		c12.098-0.367,393.737-9.532,393.737-9.532s112.549-4.033,114.015-4.033c1.466,0,0.733-5.866,1.1-10.998
		c0.367-5.133-0.367-90.552,69.289-121.347c41.427-16.131,93.485-9.898,121.714,22.363c23.83,29.329,32.628,70.389,34.095,89.819
		c6.713-0.671,14.524-0.995,17.736-1.725L1118.309,668.661z"></path>
	<path fill="#DEB124" d="M700.658,551.741c0,0,1.466-12.098,17.231-12.465c16.558-0.385,19.43,12.098,19.43,12.098L700.658,551.741z
		"></path>
	<path fill="#DEB124" d="M702.125,557.606c0,0,2.933,9.532,16.497,8.799c13.564-0.733,16.864-9.165,16.864-9.165L702.125,557.606z"></path>
	<ellipse fill="#242021" cx="231.324" cy="722.252" rx="97.868" ry="96.829"></ellipse>
	<ellipse fill="#444242" cx="231.324" cy="722.252" rx="72.169" ry="70.816"></ellipse>
	<ellipse cx="230.316" cy="721.838" rx="27.326" ry="26.811"></ellipse>
	<ellipse fill="#242021" cx="991.914" cy="722.252" rx="97.868" ry="96.829"></ellipse>
	<ellipse fill="#444242" cx="991.914" cy="722.252" rx="72.169" ry="70.816"></ellipse>
	<path fill="#242021" d="M688.925,557.221c0,0-1.098-3.667,11.734-5.493c12.832-1.826,32.628,0.018,36.661-0.346
		c4.033-0.364,2.568-3.298,8.434-2.928c5.865,0.37,12.464,1.84,12.096,4.406c-0.368,2.566-2.201,3.298-7.335,4.395
		s-13.565,0.726-13.565,0.726l-44.36,1.442C692.59,559.422,689.291,558.321,688.925,557.221z"></path>
	<g>
		<path fill="#FFFFFF" d="M157.712,567.871c-0.601,1.732-9.165,25.296-34.828,48.026c-25.663,22.73-46.193,22.73-36.294-3.666
			c9.898-26.396,37.027-46.193,48.026-52.058C145.614,554.307,163.944,549.907,157.712,567.871z"></path>
	</g>
	<g opacity="0.48">
		<path fill="none" stroke="#211915" stroke-width="1.1265" stroke-miterlimit="10" d="M392.708,721.847
			c0,0-9.165-79.187-5.866-123.547c3.299-44.359,12.098-60.857,28.229-64.89c5.866-1.466,13.198-8.432,13.198-8.432"></path>
		<path fill="none" stroke="#211915" stroke-width="1.1265" stroke-miterlimit="10" d="M747.584,513.98c0,0,9.532,0,20.163,19.797
			c10.632,19.797,4.766,100.451-5.866,154.708c-2.2,16.864-3.666,23.83-3.666,23.83"></path>
	</g>
	<ellipse cx="991.861" cy="721.838" rx="27.326" ry="26.811"></ellipse>
	<g>
		<path fill="#242021" d="M491.327,488.801c-1.143-1.342-36.159-3.741-36.99,21.612c0.831,6.65,1.247,24.522,35.328,23.275
			C497.977,533.273,510.446,511.245,491.327,488.801z"></path>
		<path fill="#242021" d="M460.156,516.648c0,0-9.144,17.041-12.469,18.703s-5.819,4.156-0.831,9.559
			c4.987,5.403,16.625,6.234,27.431,2.909c10.806-3.325,10.391-6.65,10.391-6.65l1.247-10.806L460.156,516.648z"></path>
	</g>
</g>
</svg>