<svg width="182" height="32" viewBox="0 0 182 32" fill="none" xmlns="http://www.w3.org/2000/svg">
<path d="M48.79 26.21C46.83 26.21 45.03 25.75 43.39 24.83C41.75 23.91 40.45 22.64 39.49 21.02C38.53 19.38 38.05 17.53 38.05 15.47C38.05 13.43 38.53 11.6 39.49 9.98C40.45 8.34 41.75 7.06 43.39 6.14C45.03 5.22 46.83 4.76 48.79 4.76C50.77 4.76 52.57 5.22 54.19 6.14C55.83 7.06 57.12 8.34 58.06 9.98C59.02 11.6 59.5 13.43 59.5 15.47C59.5 17.53 59.02 19.38 58.06 21.02C57.12 22.64 55.83 23.91 54.19 24.83C52.55 25.75 50.75 26.21 48.79 26.21ZM48.79 22.46C50.05 22.46 51.16 22.18 52.12 21.62C53.08 21.04 53.83 20.22 54.37 19.16C54.91 18.1 55.18 16.87 55.18 15.47C55.18 14.07 54.91 12.85 54.37 11.81C53.83 10.75 53.08 9.94 52.12 9.38C51.16 8.82 50.05 8.54 48.79 8.54C47.53 8.54 46.41 8.82 45.43 9.38C44.47 9.94 43.72 10.75 43.18 11.81C42.64 12.85 42.37 14.07 42.37 15.47C42.37 16.87 42.64 18.1 43.18 19.16C43.72 20.22 44.47 21.04 45.43 21.62C46.41 22.18 47.53 22.46 48.79 22.46ZM80.5347 26H76.3347L66.8247 11.63V26H62.6247V5.03H66.8247L76.3347 19.43V5.03H80.5347V26ZM97.6152 5.06V8.45H88.8852V13.82H95.5752V17.15H88.8852V26H84.6852V5.06H97.6152ZM104.793 5.06V26H100.593V5.06H104.793ZM107.923 15.5C107.923 13.44 108.383 11.6 109.303 9.98C110.243 8.34 111.513 7.07 113.113 6.17C114.733 5.25 116.543 4.79 118.543 4.79C120.883 4.79 122.933 5.39 124.693 6.59C126.453 7.79 127.683 9.45 128.383 11.57H123.553C123.073 10.57 122.393 9.82 121.513 9.32C120.653 8.82 119.653 8.57 118.513 8.57C117.293 8.57 116.203 8.86 115.243 9.44C114.303 10 113.563 10.8 113.023 11.84C112.503 12.88 112.243 14.1 112.243 15.5C112.243 16.88 112.503 18.1 113.023 19.16C113.563 20.2 114.303 21.01 115.243 21.59C116.203 22.15 117.293 22.43 118.513 22.43C119.653 22.43 120.653 22.18 121.513 21.68C122.393 21.16 123.073 20.4 123.553 19.4H128.383C127.683 21.54 126.453 23.21 124.693 24.41C122.953 25.59 120.903 26.18 118.543 26.18C116.543 26.18 114.733 25.73 113.113 24.83C111.513 23.91 110.243 22.64 109.303 21.02C108.383 19.4 107.923 17.56 107.923 15.5ZM136.17 5.06V26H131.97V5.06H136.17ZM158.23 26H154.03L144.52 11.63V26H140.32V5.03H144.52L154.03 19.43V5.03H158.23V26ZM175.221 22.01H166.881L165.501 26H161.091L168.621 5.03H173.511L181.041 26H176.601L175.221 22.01ZM174.081 18.65L171.051 9.89L168.021 18.65H174.081Z" fill="#F8F9FC"/>
<mask id="mask0_1082_4784" style="mask-type:luminance" maskUnits="userSpaceOnUse" x="0" y="0" width="32" height="32">
<path d="M0 0H32V32H0V0Z" fill="white"/>
</mask>
<g mask="url(#mask0_1082_4784)">
<path d="M31.9204 18.6766C31.9863 16.5155 31.9863 16.5112 32.0522 14.3507L28.7052 13.0454C28.2226 11.7705 27.9807 11.1312 27.4981 9.85634L29.1393 6.6592C27.6567 5.08893 27.653 5.0852 26.1704 3.50995L22.8837 4.95211L19.7792 3.55037L18.6766 0.131841L14.3545 0L13.0454 3.34701C11.7749 3.8296 11.1306 4.0709 9.8607 4.5541L6.66356 2.9148C5.08893 4.39241 5.0852 4.39677 3.50995 5.87873L4.95211 9.16853C4.39677 10.4073 4.11443 11.0342 3.5541 12.273L0.131841 13.3762C0.0659205 15.5367 0.0659205 15.541 0 17.6978L3.34701 19.0075C3.8296 20.2774 4.0709 20.921 4.5541 22.1959L2.9148 25.3893C4.39677 26.9633 4.40112 26.9683 5.87811 28.5423L9.16791 27.1001C10.4123 27.6561 11.0386 27.9378 12.2774 28.4975L13.3762 31.9204L17.704 32.0522L19.0093 28.7052C20.2836 28.2226 20.9229 27.9813 22.1978 27.4981L25.3949 29.1393L28.5435 26.1754L27.1014 22.8856C27.6648 21.6461 27.944 21.0155 28.5044 19.7761L31.9204 18.6766ZM16.0261 25.4291C15.7183 25.4291 15.4111 25.4142 15.1045 25.3843C14.7979 25.3539 14.4938 25.3085 14.1915 25.2488C13.8899 25.1884 13.5914 25.1138 13.2966 25.0243C13.0019 24.9347 12.7127 24.8315 12.4279 24.7133C12.1437 24.5958 11.8657 24.4639 11.5939 24.319C11.3221 24.1735 11.0585 24.0155 10.8029 23.8445C10.5466 23.6735 10.2998 23.49 10.0616 23.2948C9.82338 23.0995 9.59577 22.893 9.37811 22.6754C9.16045 22.4571 8.95336 22.2295 8.75808 21.9913C8.56281 21.7531 8.37997 21.5062 8.20896 21.25C8.03794 20.9944 7.87935 20.7307 7.73445 20.459C7.58955 20.1872 7.45771 19.9092 7.34017 19.625C7.22201 19.3402 7.11878 19.0504 7.02923 18.7562C6.93968 18.4614 6.86505 18.1629 6.80473 17.8607C6.74502 17.5591 6.69963 17.255 6.66978 16.9484C6.6393 16.6418 6.62438 16.3346 6.62438 16.0267C6.62438 15.7189 6.6393 15.4117 6.66978 15.1051C6.69963 14.7985 6.74502 14.4944 6.80535 14.1922C6.86505 13.8905 6.93968 13.592 7.02923 13.2973C7.11878 13.0025 7.22201 12.7133 7.34017 12.4285C7.45771 12.1443 7.58955 11.8663 7.73445 11.5945C7.87998 11.3228 8.03794 11.0591 8.20896 10.8035C8.37997 10.5473 8.56343 10.3004 8.75871 10.0622C8.95398 9.824 9.16045 9.59639 9.37811 9.37873C9.59577 9.16045 9.824 8.95398 10.0622 8.75871C10.2998 8.56343 10.5473 8.37997 10.8029 8.20896C11.0591 8.03794 11.3228 7.87997 11.5945 7.73507C11.8663 7.58955 12.1443 7.45833 12.4285 7.34017C12.7133 7.22264 13.0025 7.11878 13.2973 7.02923C13.592 6.9403 13.8905 6.86505 14.1922 6.80535C14.4944 6.74502 14.7985 6.70025 15.1051 6.66978C15.4117 6.63993 15.7189 6.62438 16.0267 6.62438C16.3346 6.62438 16.6418 6.6393 16.9484 6.66978C17.2544 6.70025 17.5591 6.74502 17.8607 6.80535C18.1629 6.86505 18.4614 6.93968 18.7556 7.02923C19.0504 7.11878 19.3402 7.22201 19.6244 7.34017C19.9092 7.45771 20.1872 7.58955 20.459 7.73445C20.7301 7.87997 20.9938 8.03794 21.25 8.20896C21.5062 8.37997 21.7531 8.56343 21.9913 8.75871C22.2295 8.95398 22.4571 9.16045 22.6748 9.37811C22.8924 9.59577 23.0995 9.82338 23.2948 10.0616C23.49 10.2998 23.6735 10.5466 23.8445 10.8029C24.0155 11.0591 24.1735 11.3228 24.3184 11.5939C24.4639 11.8657 24.5951 12.1437 24.7133 12.4285C24.8308 12.7127 24.9347 13.0025 25.0243 13.2966C25.1138 13.5914 25.1884 13.8899 25.2481 14.1922C25.3085 14.4938 25.3539 14.7979 25.3837 15.1045C25.4142 15.4111 25.4291 15.7183 25.4291 16.0261C25.4291 16.334 25.4142 16.6412 25.3837 16.9478C25.3532 17.2544 25.3085 17.5585 25.2481 17.8607C25.1878 18.1623 25.1132 18.4608 25.0236 18.7556C24.9341 19.0504 24.8308 19.3396 24.7127 19.6244C24.5951 19.9086 24.4633 20.1866 24.3184 20.4583C24.1729 20.7301 24.0149 20.9938 23.8439 21.25C23.6729 21.5056 23.4894 21.7531 23.2942 21.9907C23.0989 22.2289 22.8924 22.4571 22.6741 22.6748C22.4565 22.8924 22.2289 23.0989 21.9907 23.2942C21.7525 23.4894 21.5056 23.6729 21.2494 23.8439C20.9938 24.0149 20.7295 24.1729 20.4583 24.3184C20.1866 24.4633 19.9086 24.5951 19.6244 24.7127C19.3396 24.8308 19.0498 24.9347 18.7556 25.0236C18.4608 25.1132 18.1623 25.1884 17.8601 25.2481C17.5585 25.3085 17.2544 25.3539 16.9478 25.3837C16.6412 25.4142 16.334 25.4291 16.0261 25.4291Z" fill="#F8F9FC"/>
</g>
<mask id="mask1_1082_4784" style="mask-type:luminance" maskUnits="userSpaceOnUse" x="8" y="10" width="16" height="15">
<path d="M8.1461 10.3265H23.9023V24.3315H8.1461V10.3265Z" fill="white"/>
</mask>
<g mask="url(#mask1_1082_4784)">
<path d="M16 23.0447C12.0501 23.0447 8.83578 19.8263 8.83578 15.8706C8.83578 13.8934 9.66301 11.9847 11.1046 10.6329C11.4709 10.2904 12.0439 10.3097 12.3864 10.6749C12.7279 11.0412 12.7092 11.6156 12.3434 11.9581C11.2506 12.9827 10.6488 14.3719 10.6488 15.8706C10.6488 18.826 13.0489 21.2297 16 21.2297C18.951 21.2297 21.3512 18.826 21.3512 15.8706C21.3512 14.406 20.7714 13.0371 19.7194 12.0182C19.3598 11.6695 19.3502 11.0951 19.6978 10.7344C20.0461 10.3755 20.6191 10.3641 20.9797 10.7134C22.3879 12.0777 23.1641 13.9098 23.1641 15.8706C23.1641 19.8263 19.9498 23.0447 16 23.0447Z" fill="#F8F9FC"/>
</g>
<mask id="mask2_1082_4784" style="mask-type:luminance" maskUnits="userSpaceOnUse" x="14" y="7" width="4" height="10">
<path d="M14.9918 7.7345H17.0615V16.3763H14.9918V7.7345Z" fill="white"/>
</mask>
<g mask="url(#mask2_1082_4784)">
<path d="M16.0273 16.2494C15.4769 16.2494 15.0316 15.8035 15.0316 15.2538V8.73014C15.0316 8.18039 15.4769 7.7345 16.0273 7.7345C16.5777 7.7345 17.0229 8.18039 17.0229 8.73014V15.2538C17.0229 15.8035 16.5777 16.2494 16.0273 16.2494Z" fill="#F8F9FC"/>
</g>
</svg>
